<svg width="80" height="80" viewBox="0 0 80 80" fill="none" xmlns="http://www.w3.org/2000/svg">
<rect width="80" height="80" rx="5" fill="#5A9E87"/>
<path d="M16.3288 61.256C15.2621 61.256 14.4088 60.936 13.7688 60.296C13.1288 59.6133 12.8088 58.76 12.8088 57.736C12.8088 56.712 13.1288 55.88 13.7688 55.24C14.4088 54.5573 15.2621 54.216 16.3288 54.216C17.3954 54.216 18.2274 54.5573 18.8248 55.24C19.4648 55.88 19.7848 56.712 19.7848 57.736C19.7848 58.76 19.4648 59.6133 18.8248 60.296C18.2274 60.936 17.3954 61.256 16.3288 61.256ZM16.3288 36.68C15.2621 36.68 14.4088 36.3387 13.7688 35.656C13.1288 34.9733 12.8088 34.1413 12.8088 33.16C12.8088 32.0933 13.1288 31.24 13.7688 30.6C14.4088 29.96 15.2621 29.64 16.3288 29.64C17.3954 29.64 18.2274 29.96 18.8248 30.6C19.4648 31.24 19.7848 32.0933 19.7848 33.16C19.7848 34.1413 19.4648 34.9733 18.8248 35.656C18.2274 36.3387 17.3954 36.68 16.3288 36.68ZM31.9792 61C31.0406 61 30.3153 60.7653 29.8033 60.296C29.3339 59.784 29.0993 59.0587 29.0993 58.12V18.76C29.0993 17.8213 29.3339 17.1173 29.8033 16.648C30.3153 16.136 31.0406 15.88 31.9792 15.88H44.3313C51.6273 15.88 57.2593 17.8 61.2273 21.64C65.1953 25.48 67.1793 31.0693 67.1793 38.408C67.1793 42.0773 66.6673 45.32 65.6433 48.136C64.6619 50.9093 63.1899 53.256 61.2273 55.176C59.2646 57.096 56.8753 58.5467 54.0593 59.528C51.2433 60.5093 48.0006 61 44.3313 61H31.9792ZM34.3473 56.52H43.9473C46.9339 56.52 49.5153 56.136 51.6913 55.368C53.9099 54.6 55.7446 53.4693 57.1953 51.976C58.6886 50.4827 59.7979 48.6053 60.5233 46.344C61.2486 44.04 61.6113 41.3947 61.6113 38.408C61.6113 32.392 60.1393 27.8907 57.1953 24.904C54.2513 21.8747 49.8353 20.36 43.9473 20.36H34.3473V56.52Z" fill="white"/>
</svg>
